<svg xmlns="http://www.w3.org/2000/svg" width="26" height="23" viewBox="0 0 26 23">
  <path fill="#a2a09e" id="Bag_For_Shopping._Attribute_as_SimpleIcon_from_Flaticon.com" data-name="Bag For Shopping. Attribute as SimpleIcon from Flaticon.com" class="cls-1" d="M1209.34,27.643l2.79,19.714h-22.26l2.79-19.714h16.68M1210.75,26h-19.5L1188,49h26l-3.25-23h0Zm-3.25,4.929a1.625,1.625,0,1,0-2.53,1.33c-0.39,2.95-2.05,5.241-3.97,5.241s-3.58-2.291-3.97-5.241a1.61,1.61,0,1,0-1.62.129c0.47,3.884,2.75,6.756,5.59,6.756s5.12-2.872,5.59-6.756A1.64,1.64,0,0,0,1207.5,30.929Z" transform="translate(-1188 -26)"/>
</svg>
