<svg xmlns="http://www.w3.org/2000/svg" width="55" height="67" viewBox="0 0 55 67">
  <metadata><?xpacket begin="﻿" id="W5M0MpCehiHzreSzNTczkc9d"?>
<x:xmpmeta xmlns:x="adobe:ns:meta/" x:xmptk="Adobe XMP Core 5.6-c138 79.159824, 2016/09/14-01:09:01        ">
   <rdf:RDF xmlns:rdf="http://www.w3.org/1999/02/22-rdf-syntax-ns#">
      <rdf:Description rdf:about=""/>
   </rdf:RDF>
</x:xmpmeta>
                                                                                                    
                                                                                                    
                                                                                                    
                                                                                                    
                                                                                                    
                                                                                                    
                                                                                                    
                                                                                                    
                                                                                                    
                                                                                                    
                                                                                                    
                                                                                                    
                                                                                                    
                                                                                                    
                                                                                                    
                                                                                                    
                                                                                                    
                                                                                                    
                                                                                                    
                                                                                                    
                           
<?xpacket end="w"?></metadata>
<defs>
    <style>
      .cls-1 {
        fill: #816fca;
        fill-rule: evenodd;
      }
    </style>
  </defs>
  <path id="Clipboard_Verification_Symbol._Attribute_as_Freepik_from_Flaticon.com" data-name="Clipboard Verification Symbol. Attribute as Freepik from Flaticon.com" class="cls-1" d="M885.011,1855.79h-1.486a1.433,1.433,0,0,1-1.437-1.43v-0.05a3.323,3.323,0,0,0-3.339-3.31h-0.077a3.323,3.323,0,0,0-3.338,3.31v0.05a1.434,1.434,0,0,1-1.438,1.43H872.41a2.852,2.852,0,0,0-2.866,2.84v0.06a2.852,2.852,0,0,0,2.866,2.84h12.6a2.852,2.852,0,0,0,2.866-2.84v-0.06A2.852,2.852,0,0,0,885.011,1855.79Zm-6.3,0a1.44,1.44,0,1,1,1.447-1.44A1.447,1.447,0,0,1,878.711,1855.79Zm6.443,55.51H860.86a3.842,3.842,0,0,1-3.859-3.83v-45.94c0-2.12,1.728-3.83,2.894-3.83h7.82a4.961,4.961,0,0,0-.1.99,4.778,4.778,0,0,0,4.795,4.75h12.6a4.79,4.79,0,0,0,4.8-4.81,4.731,4.731,0,0,0-.1-0.93H895.6c3.1,0,4.825,1.71,4.825,3.83v28.76c-0.321-.02-0.64-0.05-0.965-0.05a15.363,15.363,0,0,0-3.86.51v-22.52H861.825v38.28h22.241A15.082,15.082,0,0,0,885.154,1911.3Zm14.3-18.19A12.445,12.445,0,1,0,912,1905.56,12.5,12.5,0,0,0,899.456,1893.11Zm8.2,9.89-7.719,8.61a1.92,1.92,0,0,1-1.443.65,1.944,1.944,0,0,1-1.205-.42l-4.824-3.83a1.9,1.9,0,0,1-.3-2.69,1.936,1.936,0,0,1,2.712-.3l3.394,2.69,6.5-7.25a1.933,1.933,0,0,1,2.724-.16A1.9,1.9,0,0,1,907.652,1903Zm-16.88-18.5H865.685a0.963,0.963,0,0,1-.965-0.96v-0.95a0.963,0.963,0,0,1,.965-0.96h25.087a0.963,0.963,0,0,1,.965.96v0.95A0.963,0.963,0,0,1,890.772,1884.5Zm0-8.61H865.685a0.963,0.963,0,0,1-.965-0.96v-0.96a0.963,0.963,0,0,1,.965-0.96h25.087a0.963,0.963,0,0,1,.965.96v0.96A0.963,0.963,0,0,1,890.772,1875.89Zm-4.825,16.27H865.685a0.963,0.963,0,0,1-.965-0.96v-0.96a0.954,0.954,0,0,1,.965-0.95h20.262a0.954,0.954,0,0,1,.965.95v0.96A0.963,0.963,0,0,1,885.947,1892.16Zm-1.929,8.61H865.685a0.963,0.963,0,0,1-.965-0.96v-0.95a0.963,0.963,0,0,1,.965-0.96h18.333a0.963,0.963,0,0,1,.965.96v0.95A0.964,0.964,0,0,1,884.018,1900.77Z" transform="translate(-857 -1851)"/>
</svg>
