<svg xmlns="http://www.w3.org/2000/svg" width="59" height="67" viewBox="0 0 59 67">
  <metadata><?xpacket begin="﻿" id="W5M0MpCehiHzreSzNTczkc9d"?>
<x:xmpmeta xmlns:x="adobe:ns:meta/" x:xmptk="Adobe XMP Core 5.6-c138 79.159824, 2016/09/14-01:09:01        ">
   <rdf:RDF xmlns:rdf="http://www.w3.org/1999/02/22-rdf-syntax-ns#">
      <rdf:Description rdf:about=""/>
   </rdf:RDF>
</x:xmpmeta>
                                                                                                    
                                                                                                    
                                                                                                    
                                                                                                    
                                                                                                    
                                                                                                    
                                                                                                    
                                                                                                    
                                                                                                    
                                                                                                    
                                                                                                    
                                                                                                    
                                                                                                    
                                                                                                    
                                                                                                    
                                                                                                    
                                                                                                    
                                                                                                    
                                                                                                    
                                                                                                    
                           
<?xpacket end="w"?></metadata>
<defs>
    <style>
      .cls-1 {
        fill: #816fca;
        fill-rule: evenodd;
      }
    </style>
  </defs>
  <path id="Delivery_Packages_On_A_Trolley._Attribute_as_Freepik_from_Flaticon.com" data-name="Delivery Packages On A Trolley. Attribute as Freepik from Flaticon.com" class="cls-1" d="M55.368,1866.56a7.243,7.243,0,1,1,13.757-4.54l14.233,43.1a9.477,9.477,0,0,0-4.145-.15l-13.779-41.73a3.355,3.355,0,1,0-6.374,2.1A1.944,1.944,0,0,1,55.368,1866.56Zm56.078,33.81-23.32,7.69a9.42,9.42,0,0,1,1.9,3.31c0.015,0.05.023,0.09,0.037,0.14l22.6-7.45A1.943,1.943,0,1,0,111.446,1900.37ZM88.18,1911.98a7.634,7.634,0,1,1-9.643-4.85A7.633,7.633,0,0,1,88.18,1911.98Zm-3.625,1.2a3.817,3.817,0,1,0-2.429,4.81A3.82,3.82,0,0,0,84.555,1913.18Zm21-42.05,7.917,23.98a0.959,0.959,0,0,1-.618,1.22l-24.919,8.22a0.971,0.971,0,0,1-1.227-.62l-7.917-23.98a0.969,0.969,0,0,1,.618-1.22l24.919-8.22A0.979,0.979,0,0,1,105.552,1871.13Zm-3.3,13.93-8.485-4.67-4.039,8.8,2.674,1.23,1.746-3.81,3.154,9.55,3.018-.99-3.153-9.55,3.668,2.02Zm-7.4-14.31-5.062-15.32a0.619,0.619,0,0,0-.785-0.4l-4.34,1.43-0.021.04-0.036-.02-2.29.76,1.886,5.71-2.583.85-1.886-5.71-2.291.75-0.017.04-0.041-.02-4.312,1.42a0.626,0.626,0,0,0-.4.79l5.062,15.33a0.621,0.621,0,0,0,.785.39l15.932-5.25A0.626,0.626,0,0,0,94.852,1870.75Z" transform="translate(-55 -1855)"/>
</svg>
