<svg width="18" height="16" viewBox="0 0 18 16">
  <path id="g_" data-name="g+" class="cls-1" d="M17.625,6.5H14.911V3.812a0.373,0.373,0,0,0-.375-0.371H13.763a0.373,0.373,0,0,0-.376.371V6.5H10.673a0.374,0.374,0,0,0-.376.372V7.634a0.374,0.374,0,0,0,.376.371h2.714v2.687a0.373,0.373,0,0,0,.376.371h0.773a0.373,0.373,0,0,0,.375-0.371V8.005h2.714A0.374,0.374,0,0,0,18,7.634V6.869A0.374,0.374,0,0,0,17.625,6.5ZM8.5,8.852a3.154,3.154,0,0,1-1.1-1.167c0-.328.03-0.485,0.774-1.058A3.512,3.512,0,0,0,9.67,3.867a3.652,3.652,0,0,0-.783-2.358H9.27a0.374,0.374,0,0,0,.22-0.07l1.068-.765A0.367,0.367,0,0,0,10.7.258,0.376,0.376,0,0,0,10.338,0H5.563A4.889,4.889,0,0,0,3.989.269,4.071,4.071,0,0,0,1.032,3.837a3.817,3.817,0,0,0,3.9,3.8,1.993,1.993,0,0,0-.066.5,1.85,1.85,0,0,0,.258.941H5.067a5.225,5.225,0,0,0-4.78,2.572A2.8,2.8,0,0,0,0,12.855a2.245,2.245,0,0,0,.3,1.113,4.254,4.254,0,0,0,2.774,1.774A9.034,9.034,0,0,0,5.264,16a7.1,7.1,0,0,0,1.952-.261,3.863,3.863,0,0,0,3.116-3.514A3.647,3.647,0,0,0,8.5,8.852Zm-6.03,3.5c0-1.11,1.426-2.085,3.052-2.085H5.569a3.673,3.673,0,0,1,1.024.154l0.323,0.219A2.829,2.829,0,0,1,8.3,12.016a1.724,1.724,0,0,1,.049.4c0,1.383-1.042,2.084-3.1,2.084C3.695,14.5,2.474,13.556,2.474,12.347Zm1.479-10.5a1.255,1.255,0,0,1,.96-0.439H4.955A2.8,2.8,0,0,1,7.206,4.008a2.505,2.505,0,0,1-.47,1.97,1.253,1.253,0,0,1-.972.44H5.747C4.713,6.386,3.682,5.177,3.5,3.779A2.422,2.422,0,0,1,3.953,1.852Z"/>
</svg>
