<svg xmlns="http://www.w3.org/2000/svg" width="13" height="16" viewBox="0 0 13 16">
  <path id="p" class="cls-1" d="M6.894,0C2.311,0,0,3.131,0,5.743A3.507,3.507,0,0,0,1.975,9.253a0.335,0.335,0,0,0,.483-0.23c0.044-.161.15-0.567,0.2-0.737a0.433,0.433,0,0,0-.139-0.513,2.574,2.574,0,0,1-.637-1.8,4.467,4.467,0,0,1,4.749-4.4c2.59,0,4.013,1.508,4.013,3.522,0,2.65-1.231,4.887-3.058,4.887A1.444,1.444,0,0,1,6.061,8.208a18.96,18.96,0,0,0,.851-3.261,1.254,1.254,0,0,0-1.3-1.38,2.135,2.135,0,0,0-1.86,2.379A3.4,3.4,0,0,0,4.059,7.4L2.819,12.408A9.829,9.829,0,0,0,2.79,15.9a0.13,0.13,0,0,0,.229.053,9.715,9.715,0,0,0,1.741-3.008c0.118-.409.678-2.526,0.678-2.526A2.8,2.8,0,0,0,7.8,11.564c3.1,0,5.2-2.693,5.2-6.3C13,2.54,10.577,0,6.894,0Z"/>
</svg>
