<svg xmlns="http://www.w3.org/2000/svg" width="61" height="59" viewBox="0 0 61 59">
  <metadata><?xpacket begin="﻿" id="W5M0MpCehiHzreSzNTczkc9d"?>
<x:xmpmeta xmlns:x="adobe:ns:meta/" x:xmptk="Adobe XMP Core 5.6-c138 79.159824, 2016/09/14-01:09:01        ">
   <rdf:RDF xmlns:rdf="http://www.w3.org/1999/02/22-rdf-syntax-ns#">
      <rdf:Description rdf:about=""/>
   </rdf:RDF>
</x:xmpmeta>
                                                                                                    
                                                                                                    
                                                                                                    
                                                                                                    
                                                                                                    
                                                                                                    
                                                                                                    
                                                                                                    
                                                                                                    
                                                                                                    
                                                                                                    
                                                                                                    
                                                                                                    
                                                                                                    
                                                                                                    
                                                                                                    
                                                                                                    
                                                                                                    
                                                                                                    
                                                                                                    
                           
<?xpacket end="w"?></metadata>
<defs>
    <style>
      .cls-1 {
        fill: #816fca;
        fill-rule: evenodd;
      }
    </style>
  </defs>
  <path id="Triangular_Arrows_Sign_For_Recycle._Attribute_as_Freepik_from_Flaticon.com" data-name="Triangular Arrows Sign For Recycle. Attribute as Freepik from Flaticon.com" class="cls-1" d="M456.32,1876.03l3.818,3.01-3.593,6.93c-1.8,3.19,1.29,6.31,3.256,7.39,1.937,1.07,4.941,1.19,7.749,1.16l5.053-8.32,3.818,2.08-6.625-12.36Zm0.562,16.97,8.2,15.25c1.647,2.12,4.754,2.62,7.973,2.54H481.7v-14.44l-16.4-.12A10.107,10.107,0,0,1,456.882,1893Zm51.574-28.1-4.46,1.91-4.279-6.53c-1.9-3.13-6.106-1.92-8-.71-1.865,1.18-3.432,3.77-4.76,6.26l4.775,8.48-3.657,2.35,13.949,0.16Zm-15.011-7.73-17.22-.17c-2.638.42-4.579,2.91-6.073,5.78l-4.192,7.62,12.544,7,8.049-14.38A10.184,10.184,0,0,1,493.445,1857.17Zm0.749,58.83,0.507-4.85,7.742-.6c3.644-.16,4.631-4.45,4.5-6.7-0.128-2.22-1.613-4.85-3.134-7.23l-9.683.1-0.272-4.37-6.9,12.21Zm13.994-9.47,8.5-15.07c0.911-2.53-.314-5.45-2.084-8.16l-4.582-7.38-12.163,7.65,8.591,14.06A10.285,10.285,0,0,1,508.188,1906.53Z" transform="translate(-456 -1857)"/>
</svg>
