<svg xmlns="http://www.w3.org/2000/svg" width="23" height="23" viewBox="0 0 23 23">

  <path fill="#a2a09e" id="Search_Information._Attribute_as_Designmodo_from_Flaticon.com" data-name="Search Information. Attribute as Designmodo from Flaticon.com" class="cls-1" d="M1023.38,26a8.625,8.625,0,0,0-7.63,12.656l-5.99,6v0a2.533,2.533,0,1,0,3.58,3.584v0l6-5.994A8.624,8.624,0,1,0,1023.38,26Zm-10.93,21.341a1.287,1.287,0,0,1-.91.39,1.265,1.265,0,0,1-.88-2.178l-0.01-.006,5.8-5.8a8.806,8.806,0,0,0,1.79,1.8Zm10.93-5.528a7.188,7.188,0,1,1,7.18-7.188A7.19,7.19,0,0,1,1023.38,41.813Zm0-12.22a5.038,5.038,0,0,0-5.04,5.031,0.36,0.36,0,0,0,.72,0,4.314,4.314,0,0,1,4.32-4.312A0.359,0.359,0,0,0,1023.38,29.594Z" transform="translate(-1009 -26)"/>
</svg>
