<svg xmlns="http://www.w3.org/2000/svg" width="16" height="13" viewBox="0 0 16 13">
  <path id="t" class="cls-1" d="M16,1.54a6.556,6.556,0,0,1-1.886.516A3.29,3.29,0,0,0,15.557.24a6.588,6.588,0,0,1-2.085.8A3.285,3.285,0,0,0,7.878,4.03,9.321,9.321,0,0,1,1.11.6,3.286,3.286,0,0,0,2.126,4.983,3.271,3.271,0,0,1,.639,4.572c0,0.014,0,.028,0,0.042A3.285,3.285,0,0,0,3.273,7.832a3.3,3.3,0,0,1-1.483.056,3.287,3.287,0,0,0,3.067,2.28,6.588,6.588,0,0,1-4.078,1.4A6.731,6.731,0,0,1,0,11.527,9.293,9.293,0,0,0,5.029,13a9.276,9.276,0,0,0,9.342-9.339c0-.142,0-0.284-0.009-0.425A6.649,6.649,0,0,0,16,1.54Z"/>
</svg>
