<svg xmlns="http://www.w3.org/2000/svg" width="23" height="23" viewBox="0 0 23 23">
  <path fill="#a2a09e" id="Profile_User_Outline._Attribute_as_Situ_Herrera_from_Flaticon.com" data-name="Profile User Outline. Attribute as Situ Herrera from Flaticon.com" class="cls-1" d="M1080.5,41.812c3.57,0,6.47-3.547,6.47-7.906S1084.07,26,1080.5,26a5.921,5.921,0,0,0-4.63,2.376,8.837,8.837,0,0,0-1.84,5.531C1074.03,38.265,1076.93,41.812,1080.5,41.812Zm0-14.374c2.77,0,5.03,2.9,5.03,6.469s-2.26,6.469-5.03,6.469-5.03-2.9-5.03-6.469S1077.73,27.438,1080.5,27.438Zm5.03,12.937a0.719,0.719,0,1,0,0,1.437,5.033,5.033,0,0,1,5.03,5.032,0.719,0.719,0,0,1-.72.719h-18.68a0.719,0.719,0,0,1-.72-0.719,5.039,5.039,0,0,1,5.03-5.032,0.719,0.719,0,1,0,0-1.437,6.475,6.475,0,0,0-6.47,6.469A2.161,2.161,0,0,0,1071.16,49h18.68a2.161,2.161,0,0,0,2.16-2.156A6.476,6.476,0,0,0,1085.53,40.375Z" transform="translate(-1069 -26)"/>
</svg>
